# xmcd CD database file
#
# Track frame offsets:
#	150
#	18793
#	38870
#	57966
#	77361
#	94166
#	109692
#	122653
#	143083
#	162919
#	181513
#	195905
#	216053
#	238103
#
# Disc length: 3338 seconds
#
# Revision: 0
# Processed by: cddbd v1.5.2PL0 Copyright (c) Steve Scherf et al.
# Submitted via: CDex 1.70beta2
#
DISCID=a60d080e
DTITLE=Bandari - Vienna Forest
DYEAR=2000
DGENRE=New Age
TTITLE0=Beatrix
TTITLE1=One Day In Spring
TTITLE2=Melody Of Love
TTITLE3=Neptune
TTITLE4=Fairyland
TTITLE5=Visions
TTITLE6=Along In The Night
TTITLE7=Starry Sky
TTITLE8=My Song For You
TTITLE9=Heaven's Gate
TTITLE10=Morning Sun
TTITLE11=Blue Lagoon
TTITLE12=Nebula
TTITLE13=Nights Of Barcelona
EXTD=YEAR: 2000
EXTT0=
EXTT1=
EXTT2=
EXTT3=
EXTT4=
EXTT5=
EXTT6=
EXTT7=
EXTT8=
EXTT9=
EXTT10=
EXTT11=
EXTT12=
EXTT13=
PLAYORDER=
